<svg width="83" height="642" viewBox="0 0 83 642" fill="none" xmlns="http://www.w3.org/2000/svg">
<rect x="35" width="18" height="642" rx="9" fill="url(#paint0_linear_2462_215)"/>
<g filter="url(#filter0_d_2462_215)">
<path d="M43.2189 101.322C62.6697 101.322 78.4378 85.5795 78.4378 66.1608C78.4378 46.742 62.6697 31 43.2189 31C23.768 31 8 46.742 8 66.1608C8 85.5795 23.768 101.322 43.2189 101.322Z" fill="#365F92"/>
</g>
<g filter="url(#filter1_d_2462_215)">
<path d="M43.0696 88.1511C55.2204 88.1511 65.0706 78.3171 65.0706 66.1864C65.0706 54.0556 55.2204 44.2217 43.0696 44.2217C30.9188 44.2217 21.0686 54.0556 21.0686 66.1864C21.0686 78.3171 30.9188 88.1511 43.0696 88.1511Z" fill="url(#paint1_linear_2462_215)"/>
</g>
<path d="M37.4972 75.2393V71.2799H41.6692V60.5709H43.9013L38.507 63.6534L36.7266 60.1192L43.1041 56.5053H46.532V71.2799H50.4383V75.2393H37.4972Z" fill="#365F92"/>
<g filter="url(#filter2_d_2462_215)">
<path d="M43.2189 245.322C62.6697 245.322 78.4378 229.58 78.4378 210.161C78.4378 190.742 62.6697 175 43.2189 175C23.768 175 8 190.742 8 210.161C8 229.58 23.768 245.322 43.2189 245.322Z" fill="#6C8DB6"/>
</g>
<g filter="url(#filter3_d_2462_215)">
<path d="M43.2703 232.151C55.4211 232.151 65.2713 222.317 65.2713 210.186C65.2713 198.056 55.4211 188.222 43.2703 188.222C31.1195 188.222 21.2693 198.056 21.2693 210.186C21.2693 222.317 31.1195 232.151 43.2703 232.151Z" fill="url(#paint2_linear_2462_215)"/>
</g>
<path d="M37.1398 219.239V215.652L42.7733 209.753C43.2339 209.257 43.5971 208.814 43.8628 208.424C44.1463 208.017 44.35 207.645 44.474 207.308C44.6157 206.954 44.6866 206.599 44.6866 206.245C44.6866 205.572 44.4651 205.067 44.0223 204.73C43.5794 204.394 42.9416 204.225 42.109 204.225C41.4004 204.225 40.6741 204.358 39.93 204.624C39.2037 204.872 38.4774 205.28 37.751 205.846L36.2364 202.286C37.0513 201.648 38.0433 201.143 39.2125 200.771C40.3818 200.399 41.5775 200.213 42.7999 200.213C44.2526 200.213 45.4661 200.426 46.4404 200.851C47.4325 201.276 48.1854 201.896 48.6991 202.711C49.2129 203.508 49.4697 204.5 49.4697 205.687C49.4697 206.254 49.4077 206.812 49.2837 207.361C49.1597 207.893 48.9648 208.424 48.6991 208.955C48.4334 209.469 48.0879 210.001 47.6628 210.55C47.2376 211.099 46.7239 211.666 46.1215 212.251L41.8167 216.502V215.28H50.1606V219.239H37.1398Z" fill="#365F92"/>
<g filter="url(#filter4_d_2462_215)">
<path d="M43.2189 427.322C62.6697 427.322 78.4378 411.58 78.4378 392.161C78.4378 372.742 62.6697 357 43.2189 357C23.768 357 8 372.742 8 392.161C8 411.58 23.768 427.322 43.2189 427.322Z" fill="#8FABCD"/>
</g>
<g filter="url(#filter5_d_2462_215)">
<path d="M43.0423 414.152C55.1931 414.152 65.0433 404.318 65.0433 392.187C65.0433 380.057 55.1931 370.223 43.0423 370.223C30.8914 370.223 21.0413 380.057 21.0413 392.187C21.0413 404.318 30.8914 414.152 43.0423 414.152Z" fill="url(#paint3_linear_2462_215)"/>
</g>
<path d="M42.4922 401.531C41.6064 401.531 40.7383 401.451 39.888 401.291C39.0554 401.132 38.2759 400.902 37.5496 400.601C36.8232 400.299 36.2209 399.945 35.7426 399.538L37.2307 395.897C38.0102 396.446 38.8251 396.854 39.6754 397.119C40.5258 397.385 41.4027 397.518 42.3061 397.518C42.9439 397.518 43.4754 397.447 43.9005 397.305C44.3257 397.164 44.6446 396.951 44.8572 396.668C45.0697 396.367 45.176 395.995 45.176 395.552C45.176 394.932 44.9546 394.48 44.5117 394.196C44.0865 393.895 43.4576 393.745 42.625 393.745H39.3565V389.865H42.1467C42.6605 389.865 43.0945 389.794 43.4488 389.652C43.8208 389.511 44.1043 389.307 44.2991 389.041C44.494 388.758 44.5914 388.412 44.5914 388.005C44.5914 387.42 44.3788 386.977 43.9537 386.676C43.5462 386.375 42.935 386.225 42.1201 386.225C41.2698 386.225 40.4637 386.357 39.702 386.623C38.9579 386.889 38.2405 387.296 37.5496 387.845L36.0349 384.285C36.8321 383.629 37.8064 383.124 38.9579 382.77C40.1272 382.398 41.3407 382.212 42.5984 382.212C43.998 382.212 45.1937 382.416 46.1858 382.823C47.1779 383.231 47.9308 383.824 48.4445 384.604C48.976 385.365 49.2417 386.287 49.2417 387.367C49.2417 388.448 48.9405 389.378 48.3382 390.157C47.7359 390.937 46.9121 391.451 45.8669 391.699V391.327C46.6818 391.451 47.3816 391.725 47.9662 392.15C48.5685 392.575 49.0291 393.116 49.348 393.771C49.6669 394.427 49.8263 395.18 49.8263 396.03C49.8263 397.164 49.534 398.147 48.9494 398.98C48.3648 399.812 47.5233 400.45 46.425 400.893C45.3266 401.318 44.0157 401.531 42.4922 401.531Z" fill="#365F92"/>
<g filter="url(#filter6_d_2462_215)">
<path d="M43.2189 610.322C62.6698 610.322 78.4378 594.58 78.4378 575.161C78.4378 555.742 62.6698 540 43.2189 540C23.768 540 8 555.742 8 575.161C8 594.58 23.768 610.322 43.2189 610.322Z" fill="#C4D8F0"/>
</g>
<g filter="url(#filter7_d_2462_215)">
<path d="M43.1812 597.152C55.332 597.152 65.1822 587.318 65.1822 575.187C65.1822 563.057 55.332 553.223 43.1812 553.223C31.0304 553.223 21.1802 563.057 21.1802 575.187C21.1802 587.318 31.0304 597.152 43.1812 597.152Z" fill="url(#paint4_linear_2462_215)"/>
</g>
<path d="M43.6408 584.238V581.103H36.041V577.675L44.4115 565.504H48.3443V577.409H50.789V581.103H48.3443V584.238H43.6408ZM43.6408 577.409V571.297H44.3849L39.4955 578.552V577.409H43.6408Z" fill="#365F92"/>
<defs>
<filter id="filter0_d_2462_215" x="3.84796" y="26.848" width="78.7418" height="78.6254" filterUnits="userSpaceOnUse" color-interpolation-filters="sRGB">
<feFlood flood-opacity="0" result="BackgroundImageFix"/>
<feColorMatrix in="SourceAlpha" type="matrix" values="0 0 0 0 0 0 0 0 0 0 0 0 0 0 0 0 0 0 127 0" result="hardAlpha"/>
<feOffset/>
<feGaussianBlur stdDeviation="2.07602"/>
<feColorMatrix type="matrix" values="0 0 0 0 0 0 0 0 0 0 0 0 0 0 0 0 0 0 0.25 0"/>
<feBlend mode="normal" in2="BackgroundImageFix" result="effect1_dropShadow_2462_215"/>
<feBlend mode="normal" in="SourceGraphic" in2="effect1_dropShadow_2462_215" result="shape"/>
</filter>
<filter id="filter1_d_2462_215" x="0.682097" y="44.2217" width="64.3885" height="60.5794" filterUnits="userSpaceOnUse" color-interpolation-filters="sRGB">
<feFlood flood-opacity="0" result="BackgroundImageFix"/>
<feColorMatrix in="SourceAlpha" type="matrix" values="0 0 0 0 0 0 0 0 0 0 0 0 0 0 0 0 0 0 127 0" result="hardAlpha"/>
<feOffset dx="-12.4561" dy="8.71928"/>
<feGaussianBlur stdDeviation="3.9652"/>
<feColorMatrix type="matrix" values="0 0 0 0 0 0 0 0 0 0 0 0 0 0 0 0 0 0 0.25 0"/>
<feBlend mode="normal" in2="BackgroundImageFix" result="effect1_dropShadow_2462_215"/>
<feBlend mode="normal" in="SourceGraphic" in2="effect1_dropShadow_2462_215" result="shape"/>
</filter>
<filter id="filter2_d_2462_215" x="3.84796" y="170.848" width="78.7418" height="78.6254" filterUnits="userSpaceOnUse" color-interpolation-filters="sRGB">
<feFlood flood-opacity="0" result="BackgroundImageFix"/>
<feColorMatrix in="SourceAlpha" type="matrix" values="0 0 0 0 0 0 0 0 0 0 0 0 0 0 0 0 0 0 127 0" result="hardAlpha"/>
<feOffset/>
<feGaussianBlur stdDeviation="2.07602"/>
<feColorMatrix type="matrix" values="0 0 0 0 0 0 0 0 0 0 0 0 0 0 0 0 0 0 0.25 0"/>
<feBlend mode="normal" in2="BackgroundImageFix" result="effect1_dropShadow_2462_215"/>
<feBlend mode="normal" in="SourceGraphic" in2="effect1_dropShadow_2462_215" result="shape"/>
</filter>
<filter id="filter3_d_2462_215" x="0.882781" y="188.222" width="64.3885" height="60.5794" filterUnits="userSpaceOnUse" color-interpolation-filters="sRGB">
<feFlood flood-opacity="0" result="BackgroundImageFix"/>
<feColorMatrix in="SourceAlpha" type="matrix" values="0 0 0 0 0 0 0 0 0 0 0 0 0 0 0 0 0 0 127 0" result="hardAlpha"/>
<feOffset dx="-12.4561" dy="8.71928"/>
<feGaussianBlur stdDeviation="3.9652"/>
<feColorMatrix type="matrix" values="0 0 0 0 0 0 0 0 0 0 0 0 0 0 0 0 0 0 0.25 0"/>
<feBlend mode="normal" in2="BackgroundImageFix" result="effect1_dropShadow_2462_215"/>
<feBlend mode="normal" in="SourceGraphic" in2="effect1_dropShadow_2462_215" result="shape"/>
</filter>
<filter id="filter4_d_2462_215" x="3.84796" y="352.848" width="78.7418" height="78.6263" filterUnits="userSpaceOnUse" color-interpolation-filters="sRGB">
<feFlood flood-opacity="0" result="BackgroundImageFix"/>
<feColorMatrix in="SourceAlpha" type="matrix" values="0 0 0 0 0 0 0 0 0 0 0 0 0 0 0 0 0 0 127 0" result="hardAlpha"/>
<feOffset/>
<feGaussianBlur stdDeviation="2.07602"/>
<feColorMatrix type="matrix" values="0 0 0 0 0 0 0 0 0 0 0 0 0 0 0 0 0 0 0.25 0"/>
<feBlend mode="normal" in2="BackgroundImageFix" result="effect1_dropShadow_2462_215"/>
<feBlend mode="normal" in="SourceGraphic" in2="effect1_dropShadow_2462_215" result="shape"/>
</filter>
<filter id="filter5_d_2462_215" x="0.654754" y="370.223" width="64.3885" height="60.5794" filterUnits="userSpaceOnUse" color-interpolation-filters="sRGB">
<feFlood flood-opacity="0" result="BackgroundImageFix"/>
<feColorMatrix in="SourceAlpha" type="matrix" values="0 0 0 0 0 0 0 0 0 0 0 0 0 0 0 0 0 0 127 0" result="hardAlpha"/>
<feOffset dx="-12.4561" dy="8.71928"/>
<feGaussianBlur stdDeviation="3.9652"/>
<feColorMatrix type="matrix" values="0 0 0 0 0 0 0 0 0 0 0 0 0 0 0 0 0 0 0.25 0"/>
<feBlend mode="normal" in2="BackgroundImageFix" result="effect1_dropShadow_2462_215"/>
<feBlend mode="normal" in="SourceGraphic" in2="effect1_dropShadow_2462_215" result="shape"/>
</filter>
<filter id="filter6_d_2462_215" x="3.84796" y="535.848" width="78.7419" height="78.6263" filterUnits="userSpaceOnUse" color-interpolation-filters="sRGB">
<feFlood flood-opacity="0" result="BackgroundImageFix"/>
<feColorMatrix in="SourceAlpha" type="matrix" values="0 0 0 0 0 0 0 0 0 0 0 0 0 0 0 0 0 0 127 0" result="hardAlpha"/>
<feOffset/>
<feGaussianBlur stdDeviation="2.07602"/>
<feColorMatrix type="matrix" values="0 0 0 0 0 0 0 0 0 0 0 0 0 0 0 0 0 0 0.25 0"/>
<feBlend mode="normal" in2="BackgroundImageFix" result="effect1_dropShadow_2462_215"/>
<feBlend mode="normal" in="SourceGraphic" in2="effect1_dropShadow_2462_215" result="shape"/>
</filter>
<filter id="filter7_d_2462_215" x="0.79367" y="553.223" width="64.3885" height="60.5794" filterUnits="userSpaceOnUse" color-interpolation-filters="sRGB">
<feFlood flood-opacity="0" result="BackgroundImageFix"/>
<feColorMatrix in="SourceAlpha" type="matrix" values="0 0 0 0 0 0 0 0 0 0 0 0 0 0 0 0 0 0 127 0" result="hardAlpha"/>
<feOffset dx="-12.4561" dy="8.71928"/>
<feGaussianBlur stdDeviation="3.9652"/>
<feColorMatrix type="matrix" values="0 0 0 0 0 0 0 0 0 0 0 0 0 0 0 0 0 0 0.25 0"/>
<feBlend mode="normal" in2="BackgroundImageFix" result="effect1_dropShadow_2462_215"/>
<feBlend mode="normal" in="SourceGraphic" in2="effect1_dropShadow_2462_215" result="shape"/>
</filter>
<linearGradient id="paint0_linear_2462_215" x1="44" y1="0" x2="44" y2="642" gradientUnits="userSpaceOnUse">
<stop stop-color="#365F92"/>
<stop offset="1" stop-color="#C5D9F1"/>
</linearGradient>
<linearGradient id="paint1_linear_2462_215" x1="27.5067" y1="50.6588" x2="58.5781" y2="81.7816" gradientUnits="userSpaceOnUse">
<stop stop-color="white"/>
<stop offset="1" stop-color="#DCDCDB"/>
</linearGradient>
<linearGradient id="paint2_linear_2462_215" x1="27.7038" y1="194.659" x2="58.7752" y2="225.782" gradientUnits="userSpaceOnUse">
<stop stop-color="white"/>
<stop offset="1" stop-color="#DCDCDB"/>
</linearGradient>
<linearGradient id="paint3_linear_2462_215" x1="27.4752" y1="376.66" x2="58.5466" y2="407.783" gradientUnits="userSpaceOnUse">
<stop stop-color="white"/>
<stop offset="1" stop-color="#DCDCDB"/>
</linearGradient>
<linearGradient id="paint4_linear_2462_215" x1="27.6186" y1="559.66" x2="58.6901" y2="590.783" gradientUnits="userSpaceOnUse">
<stop stop-color="white"/>
<stop offset="1" stop-color="#DCDCDB"/>
</linearGradient>
</defs>
</svg>
