<svg width="1080" height="375" viewBox="0 0 1080 375" fill="none" xmlns="http://www.w3.org/2000/svg">
<path d="M931.626 36.0448C892.545 36.0349 855.038 51.4225 827.256 78.8641C799.473 106.306 783.661 143.584 783.253 182.599C783.253 183.104 783.253 183.639 783.253 184.174C783.253 214.006 771.382 242.618 750.252 263.713C729.122 284.808 700.464 296.659 670.582 296.659C640.7 296.659 612.041 284.808 590.911 263.713C569.781 242.618 557.911 214.006 557.911 184.174C558.12 144.887 542.688 107.127 515.011 79.2002C487.333 51.273 449.677 35.4664 410.326 35.2577C370.975 35.0489 333.152 50.4551 305.179 78.087C277.206 105.719 261.373 143.313 261.164 182.599C261.164 183.104 261.164 183.639 261.164 184.174C261.16 214.022 249.279 242.647 228.135 263.75C206.991 284.854 178.316 296.707 148.418 296.703C133.614 296.701 118.956 293.788 105.279 288.131C91.6029 282.473 79.1767 274.181 68.71 263.729C47.5718 242.62 35.6986 213.993 35.7025 184.144C35.7025 179.417 33.8218 174.884 30.474 171.542C27.1263 168.2 22.5857 166.322 17.8513 166.322C13.1169 166.322 8.57633 168.2 5.22857 171.542C1.88082 174.884 6.61404e-05 179.417 6.61404e-05 184.144C-0.205092 223.43 15.2303 261.189 42.9107 289.113C70.591 317.037 108.249 332.84 147.6 333.045C186.951 333.25 224.772 317.84 252.743 290.205C280.713 262.57 296.542 224.975 296.747 185.688C296.747 185.183 296.747 184.649 296.747 184.144C296.751 179.017 297.099 173.897 297.788 168.817C301.576 141.967 314.951 117.385 335.452 99.5989C355.952 81.8123 382.198 72.0175 409.359 72.0175C436.519 72.0175 462.765 81.8123 483.266 99.5989C503.766 117.385 517.141 141.967 520.929 168.817C521.688 173.892 522.095 179.013 522.149 184.144C521.944 223.43 537.379 261.189 565.059 289.113C592.74 317.037 630.398 332.84 669.749 333.045C709.1 333.25 746.921 317.84 774.891 290.205C802.862 262.57 818.691 224.975 818.896 185.688C818.896 185.183 818.896 184.649 818.896 184.144C818.9 179.017 819.248 173.897 819.937 168.817C823.725 141.967 837.1 117.385 857.6 99.5989C878.101 81.8123 904.347 72.0175 931.507 72.0175C958.668 72.0175 984.914 81.8123 1005.41 99.5989C1025.92 117.385 1039.29 141.967 1043.08 168.817C1043.84 173.892 1044.24 179.013 1044.3 184.144C1044.3 188.87 1046.18 193.404 1049.53 196.746C1052.87 200.088 1057.41 201.966 1062.15 201.966C1066.88 201.966 1071.42 200.088 1074.77 196.746C1078.12 193.404 1080 188.87 1080 184.144C1079.98 144.865 1064.34 107.202 1036.52 79.4271C1008.7 51.6527 970.97 36.0387 931.626 36.0151V36.0448Z" fill="url(#paint0_linear_2459_214)"/>
<g filter="url(#filter0_d_2459_214)">
<path d="M148.374 269.821C195.22 269.821 233.197 231.907 233.197 185.138C233.197 138.369 195.22 100.455 148.374 100.455C101.527 100.455 63.5504 138.369 63.5504 185.138C63.5504 231.907 101.527 269.821 148.374 269.821Z" fill="#365F92"/>
</g>
<g filter="url(#filter1_d_2459_214)">
<path d="M148.014 238.101C177.279 238.101 201.002 214.416 201.002 185.2C201.002 155.983 177.279 132.299 148.014 132.299C118.749 132.299 95.0254 155.983 95.0254 185.2C95.0254 214.416 118.749 238.101 148.014 238.101Z" fill="url(#paint1_linear_2459_214)"/>
</g>
<g filter="url(#filter2_d_2459_214)">
<path d="M409.21 269.821C456.056 269.821 494.033 231.907 494.033 185.138C494.033 138.369 456.056 100.455 409.21 100.455C362.363 100.455 324.387 138.369 324.387 185.138C324.387 231.907 362.363 269.821 409.21 269.821Z" fill="#6C8DB6"/>
</g>
<g filter="url(#filter3_d_2459_214)">
<path d="M409.334 238.101C438.598 238.101 462.322 214.416 462.322 185.2C462.322 155.983 438.598 132.299 409.334 132.299C380.069 132.299 356.345 155.983 356.345 185.2C356.345 214.416 380.069 238.101 409.334 238.101Z" fill="url(#paint2_linear_2459_214)"/>
</g>
<g filter="url(#filter4_d_2459_214)">
<path d="M670.165 269.821C717.012 269.821 754.988 231.907 754.988 185.138C754.988 138.369 717.012 100.455 670.165 100.455C623.319 100.455 585.342 138.369 585.342 185.138C585.342 231.907 623.319 269.821 670.165 269.821Z" fill="#8FABCD"/>
</g>
<g filter="url(#filter5_d_2459_214)">
<path d="M669.74 238.101C699.004 238.101 722.728 214.416 722.728 185.2C722.728 155.983 699.004 132.299 669.74 132.299C640.475 132.299 616.751 155.983 616.751 185.2C616.751 214.416 640.475 238.101 669.74 238.101Z" fill="url(#paint3_linear_2459_214)"/>
</g>
<g filter="url(#filter6_d_2459_214)">
<path d="M931.15 269.821C977.997 269.821 1015.97 231.907 1015.97 185.138C1015.97 138.369 977.997 100.455 931.15 100.455C884.304 100.455 846.327 138.369 846.327 185.138C846.327 231.907 884.304 269.821 931.15 269.821Z" fill="#C4D8F0"/>
</g>
<g filter="url(#filter7_d_2459_214)">
<path d="M931.059 238.101C960.324 238.101 984.048 214.416 984.048 185.2C984.048 155.983 960.324 132.299 931.059 132.299C901.795 132.299 878.071 155.983 878.071 185.2C878.071 214.416 901.795 238.101 931.059 238.101Z" fill="url(#paint4_linear_2459_214)"/>
</g>
<path d="M410.861 267.355H407.886V374.999H410.861V267.355Z" fill="#243770"/>
<path d="M149.608 0H146.633V107.644H149.608V0Z" fill="#365F92"/>
<path d="M932.266 267.355H929.291V374.999H932.266V267.355Z" fill="#358FAD"/>
<path d="M670.091 0H667.116V107.644H670.091V0Z" fill="#2A5988"/>
<path d="M134.593 206.059V196.523H144.641V170.731H150.017L137.025 178.155L132.737 169.643L148.097 160.939H156.353V196.523H165.761V206.059H134.593Z" fill="#365F92"/>
<path d="M394.569 206.059V197.419L408.137 183.211C409.246 182.016 410.121 180.949 410.761 180.011C411.443 179.029 411.934 178.133 412.233 177.323C412.574 176.469 412.745 175.616 412.745 174.763C412.745 173.141 412.211 171.925 411.145 171.115C410.078 170.304 408.542 169.899 406.537 169.899C404.83 169.899 403.081 170.219 401.289 170.859C399.539 171.456 397.79 172.437 396.041 173.803L392.393 165.227C394.355 163.691 396.745 162.475 399.561 161.579C402.377 160.683 405.257 160.235 408.201 160.235C411.699 160.235 414.622 160.747 416.969 161.771C419.358 162.795 421.171 164.288 422.409 166.251C423.646 168.171 424.265 170.56 424.265 173.419C424.265 174.784 424.115 176.128 423.817 177.451C423.518 178.731 423.049 180.011 422.409 181.291C421.769 182.528 420.937 183.808 419.913 185.131C418.889 186.453 417.651 187.819 416.201 189.227L405.833 199.467V196.523H425.929V206.059H394.569Z" fill="#365F92"/>
<path d="M668.415 206.763C666.281 206.763 664.191 206.571 662.143 206.187C660.137 205.803 658.26 205.248 656.511 204.523C654.761 203.797 653.311 202.944 652.159 201.963L655.743 193.195C657.62 194.517 659.583 195.499 661.631 196.139C663.679 196.779 665.791 197.099 667.967 197.099C669.503 197.099 670.783 196.928 671.807 196.587C672.831 196.245 673.599 195.733 674.111 195.051C674.623 194.325 674.879 193.429 674.879 192.363C674.879 190.869 674.345 189.781 673.279 189.099C672.255 188.373 670.74 188.011 668.735 188.011H660.863V178.667H667.583C668.82 178.667 669.865 178.496 670.719 178.155C671.615 177.813 672.297 177.323 672.767 176.683C673.236 176 673.471 175.168 673.471 174.187C673.471 172.779 672.959 171.712 671.935 170.987C670.953 170.261 669.481 169.899 667.519 169.899C665.471 169.899 663.529 170.219 661.695 170.859C659.903 171.499 658.175 172.48 656.511 173.803L652.863 165.227C654.783 163.648 657.129 162.432 659.903 161.579C662.719 160.683 665.641 160.235 668.671 160.235C672.041 160.235 674.921 160.725 677.311 161.707C679.7 162.688 681.513 164.117 682.751 165.995C684.031 167.829 684.671 170.048 684.671 172.651C684.671 175.253 683.945 177.493 682.495 179.371C681.044 181.248 679.06 182.485 676.543 183.083V182.187C678.505 182.485 680.191 183.147 681.599 184.171C683.049 185.195 684.159 186.496 684.927 188.075C685.695 189.653 686.079 191.467 686.079 193.515C686.079 196.245 685.375 198.613 683.967 200.619C682.559 202.624 680.532 204.16 677.887 205.227C675.241 206.251 672.084 206.763 668.415 206.763Z" fill="#365F92"/>
<path d="M932.166 206.059V198.507H913.862V190.251L934.022 160.939H943.494V189.611H949.382V198.507H943.494V206.059H932.166ZM932.166 189.611V174.891H933.958L922.182 192.363V189.611H932.166Z" fill="#365F92"/>
<defs>
<filter id="filter0_d_2459_214" x="53.5504" y="90.4551" width="189.646" height="189.367" filterUnits="userSpaceOnUse" color-interpolation-filters="sRGB">
<feFlood flood-opacity="0" result="BackgroundImageFix"/>
<feColorMatrix in="SourceAlpha" type="matrix" values="0 0 0 0 0 0 0 0 0 0 0 0 0 0 0 0 0 0 127 0" result="hardAlpha"/>
<feOffset/>
<feGaussianBlur stdDeviation="5"/>
<feColorMatrix type="matrix" values="0 0 0 0 0 0 0 0 0 0 0 0 0 0 0 0 0 0 0.25 0"/>
<feBlend mode="normal" in2="BackgroundImageFix" result="effect1_dropShadow_2459_214"/>
<feBlend mode="normal" in="SourceGraphic" in2="effect1_dropShadow_2459_214" result="shape"/>
</filter>
<filter id="filter1_d_2459_214" x="45.9254" y="132.299" width="155.077" height="145.903" filterUnits="userSpaceOnUse" color-interpolation-filters="sRGB">
<feFlood flood-opacity="0" result="BackgroundImageFix"/>
<feColorMatrix in="SourceAlpha" type="matrix" values="0 0 0 0 0 0 0 0 0 0 0 0 0 0 0 0 0 0 127 0" result="hardAlpha"/>
<feOffset dx="-30" dy="21"/>
<feGaussianBlur stdDeviation="9.55"/>
<feColorMatrix type="matrix" values="0 0 0 0 0 0 0 0 0 0 0 0 0 0 0 0 0 0 0.25 0"/>
<feBlend mode="normal" in2="BackgroundImageFix" result="effect1_dropShadow_2459_214"/>
<feBlend mode="normal" in="SourceGraphic" in2="effect1_dropShadow_2459_214" result="shape"/>
</filter>
<filter id="filter2_d_2459_214" x="314.387" y="90.4551" width="189.646" height="189.367" filterUnits="userSpaceOnUse" color-interpolation-filters="sRGB">
<feFlood flood-opacity="0" result="BackgroundImageFix"/>
<feColorMatrix in="SourceAlpha" type="matrix" values="0 0 0 0 0 0 0 0 0 0 0 0 0 0 0 0 0 0 127 0" result="hardAlpha"/>
<feOffset/>
<feGaussianBlur stdDeviation="5"/>
<feColorMatrix type="matrix" values="0 0 0 0 0 0 0 0 0 0 0 0 0 0 0 0 0 0 0.25 0"/>
<feBlend mode="normal" in2="BackgroundImageFix" result="effect1_dropShadow_2459_214"/>
<feBlend mode="normal" in="SourceGraphic" in2="effect1_dropShadow_2459_214" result="shape"/>
</filter>
<filter id="filter3_d_2459_214" x="307.245" y="132.299" width="155.077" height="145.903" filterUnits="userSpaceOnUse" color-interpolation-filters="sRGB">
<feFlood flood-opacity="0" result="BackgroundImageFix"/>
<feColorMatrix in="SourceAlpha" type="matrix" values="0 0 0 0 0 0 0 0 0 0 0 0 0 0 0 0 0 0 127 0" result="hardAlpha"/>
<feOffset dx="-30" dy="21"/>
<feGaussianBlur stdDeviation="9.55"/>
<feColorMatrix type="matrix" values="0 0 0 0 0 0 0 0 0 0 0 0 0 0 0 0 0 0 0.25 0"/>
<feBlend mode="normal" in2="BackgroundImageFix" result="effect1_dropShadow_2459_214"/>
<feBlend mode="normal" in="SourceGraphic" in2="effect1_dropShadow_2459_214" result="shape"/>
</filter>
<filter id="filter4_d_2459_214" x="575.342" y="90.4551" width="189.646" height="189.367" filterUnits="userSpaceOnUse" color-interpolation-filters="sRGB">
<feFlood flood-opacity="0" result="BackgroundImageFix"/>
<feColorMatrix in="SourceAlpha" type="matrix" values="0 0 0 0 0 0 0 0 0 0 0 0 0 0 0 0 0 0 127 0" result="hardAlpha"/>
<feOffset/>
<feGaussianBlur stdDeviation="5"/>
<feColorMatrix type="matrix" values="0 0 0 0 0 0 0 0 0 0 0 0 0 0 0 0 0 0 0.25 0"/>
<feBlend mode="normal" in2="BackgroundImageFix" result="effect1_dropShadow_2459_214"/>
<feBlend mode="normal" in="SourceGraphic" in2="effect1_dropShadow_2459_214" result="shape"/>
</filter>
<filter id="filter5_d_2459_214" x="567.651" y="132.299" width="155.077" height="145.903" filterUnits="userSpaceOnUse" color-interpolation-filters="sRGB">
<feFlood flood-opacity="0" result="BackgroundImageFix"/>
<feColorMatrix in="SourceAlpha" type="matrix" values="0 0 0 0 0 0 0 0 0 0 0 0 0 0 0 0 0 0 127 0" result="hardAlpha"/>
<feOffset dx="-30" dy="21"/>
<feGaussianBlur stdDeviation="9.55"/>
<feColorMatrix type="matrix" values="0 0 0 0 0 0 0 0 0 0 0 0 0 0 0 0 0 0 0.25 0"/>
<feBlend mode="normal" in2="BackgroundImageFix" result="effect1_dropShadow_2459_214"/>
<feBlend mode="normal" in="SourceGraphic" in2="effect1_dropShadow_2459_214" result="shape"/>
</filter>
<filter id="filter6_d_2459_214" x="836.327" y="90.4551" width="189.646" height="189.367" filterUnits="userSpaceOnUse" color-interpolation-filters="sRGB">
<feFlood flood-opacity="0" result="BackgroundImageFix"/>
<feColorMatrix in="SourceAlpha" type="matrix" values="0 0 0 0 0 0 0 0 0 0 0 0 0 0 0 0 0 0 127 0" result="hardAlpha"/>
<feOffset/>
<feGaussianBlur stdDeviation="5"/>
<feColorMatrix type="matrix" values="0 0 0 0 0 0 0 0 0 0 0 0 0 0 0 0 0 0 0.25 0"/>
<feBlend mode="normal" in2="BackgroundImageFix" result="effect1_dropShadow_2459_214"/>
<feBlend mode="normal" in="SourceGraphic" in2="effect1_dropShadow_2459_214" result="shape"/>
</filter>
<filter id="filter7_d_2459_214" x="828.971" y="132.299" width="155.077" height="145.903" filterUnits="userSpaceOnUse" color-interpolation-filters="sRGB">
<feFlood flood-opacity="0" result="BackgroundImageFix"/>
<feColorMatrix in="SourceAlpha" type="matrix" values="0 0 0 0 0 0 0 0 0 0 0 0 0 0 0 0 0 0 127 0" result="hardAlpha"/>
<feOffset dx="-30" dy="21"/>
<feGaussianBlur stdDeviation="9.55"/>
<feColorMatrix type="matrix" values="0 0 0 0 0 0 0 0 0 0 0 0 0 0 0 0 0 0 0.25 0"/>
<feBlend mode="normal" in2="BackgroundImageFix" result="effect1_dropShadow_2459_214"/>
<feBlend mode="normal" in="SourceGraphic" in2="effect1_dropShadow_2459_214" result="shape"/>
</filter>
<linearGradient id="paint0_linear_2459_214" x1="6.61403e-05" y1="184.174" x2="1080" y2="184.174" gradientUnits="userSpaceOnUse">
<stop stop-color="#365F92"/>
<stop offset="1" stop-color="#C5D9F1"/>
</linearGradient>
<linearGradient id="paint1_linear_2459_214" x1="110.531" y1="147.802" x2="185.365" y2="222.76" gradientUnits="userSpaceOnUse">
<stop stop-color="white"/>
<stop offset="1" stop-color="#DCDCDB"/>
</linearGradient>
<linearGradient id="paint2_linear_2459_214" x1="371.842" y1="147.802" x2="446.677" y2="222.76" gradientUnits="userSpaceOnUse">
<stop stop-color="white"/>
<stop offset="1" stop-color="#DCDCDB"/>
</linearGradient>
<linearGradient id="paint3_linear_2459_214" x1="632.247" y1="147.802" x2="707.081" y2="222.76" gradientUnits="userSpaceOnUse">
<stop stop-color="white"/>
<stop offset="1" stop-color="#DCDCDB"/>
</linearGradient>
<linearGradient id="paint4_linear_2459_214" x1="893.578" y1="147.802" x2="968.412" y2="222.76" gradientUnits="userSpaceOnUse">
<stop stop-color="white"/>
<stop offset="1" stop-color="#DCDCDB"/>
</linearGradient>
</defs>
</svg>
