<svg width="1072" height="827" viewBox="0 0 1072 827" fill="none" xmlns="http://www.w3.org/2000/svg">
<mask id="mask0_515_503" style="mask-type:alpha" maskUnits="userSpaceOnUse" x="0" y="0" width="1072" height="827">
<rect width="1072" height="827" rx="70" fill="#D9D9D9"/>
</mask>
<g mask="url(#mask0_515_503)">
<g clip-path="url(#clip0_515_503)">
<path d="M292.998 66.4312L292.982 66.418L292.955 66.4504L292.998 66.4312Z" fill="white" fill-opacity="0.1"/>
<path d="M498.331 1273.44C498.104 1273.23 497.864 1273.03 497.612 1272.85L595.749 1030.38C597.059 1030.71 598.435 1030.69 599.732 1030.31C601.03 1029.93 602.201 1029.21 603.124 1028.22C604.047 1027.23 604.687 1026.02 604.977 1024.7C605.268 1023.38 605.198 1022 604.774 1020.72L766.322 941.654C766.795 942.437 767.395 943.135 768.098 943.721C769.908 945.061 772.166 945.653 774.401 945.375C776.637 945.096 778.68 943.968 780.107 942.223C781.534 940.479 782.236 938.253 782.066 936.007C781.897 933.76 780.869 931.665 779.197 930.155C778.902 929.886 778.592 929.633 778.27 929.397L867.418 735.267C869.485 735.994 871.726 736.068 873.838 735.481C875.949 734.895 877.83 733.674 879.227 731.985C880.623 730.296 881.468 728.219 881.648 726.035C881.828 723.85 881.333 721.664 880.231 719.77L1047.95 600.407C1048.15 600.602 1048.37 600.781 1048.6 600.943C1049.7 601.849 1051.05 602.408 1052.47 602.549C1053.89 602.689 1055.32 602.405 1056.58 601.733C1057.84 601.06 1058.87 600.029 1059.54 598.77C1060.21 597.511 1060.49 596.081 1060.35 594.662C1060.21 593.242 1059.65 591.897 1058.74 590.796C1057.83 589.695 1056.62 588.889 1055.25 588.479C1053.89 588.069 1052.43 588.074 1051.07 588.493C1049.7 588.912 1048.49 589.727 1047.59 590.834C1047.32 591.172 1047.07 591.535 1046.87 591.919L802.83 500.581C803.112 499.31 803.026 497.984 802.581 496.761C802.136 495.537 801.351 494.467 800.318 493.675C799.285 492.883 798.047 492.402 796.75 492.29C795.453 492.178 794.15 492.439 792.996 493.042L602.663 227.949C602.833 227.742 603.003 227.534 603.172 227.326C604.358 225.877 604.92 224.016 604.734 222.153C604.548 220.29 603.629 218.577 602.18 217.391C600.731 216.206 598.87 215.645 597.007 215.831C595.144 216.018 593.432 216.937 592.246 218.386C592.167 218.482 592.102 218.562 592.024 218.658L427.46 131.23C427.942 129.87 427.974 128.391 427.552 127.012C427.13 125.632 426.275 124.425 425.115 123.568C423.954 122.711 422.549 122.25 421.106 122.253C419.664 122.255 418.26 122.721 417.102 123.583L148.699 -144.887C149.626 -146.103 150.176 -147.566 150.279 -149.092C150.382 -150.619 150.034 -152.142 149.278 -153.472C148.523 -154.802 147.393 -155.881 146.029 -156.573C144.665 -157.266 143.128 -157.543 141.608 -157.369C140.088 -157.195 138.652 -156.578 137.48 -155.594C136.308 -154.611 135.45 -153.305 135.014 -151.838C134.579 -150.371 134.583 -148.809 135.028 -147.345C135.473 -145.882 136.338 -144.581 137.517 -143.606L-10.9265 93.5312C-12.9873 92.4967 -15.3282 92.159 -17.5977 92.5689C-19.8671 92.9788 -21.9424 94.1141 -23.5116 95.8043C-25.0809 97.4945 -26.0594 99.6483 -26.3001 101.942C-26.5408 104.235 -26.0307 106.545 -24.8464 108.524L-126.952 183.352C-127.454 182.771 -128.003 182.232 -128.594 181.741C-130.055 180.523 -131.762 179.635 -133.598 179.139C-135.435 178.642 -137.357 178.549 -139.233 178.865C-141.109 179.182 -142.894 179.9 -144.467 180.971C-146.039 182.042 -147.362 183.44 -148.343 185.07C-149.324 186.7 -149.942 188.523 -150.152 190.414C-150.363 192.305 -150.163 194.219 -149.564 196.025C-148.966 197.83 -147.984 199.485 -146.686 200.876C-145.388 202.266 -143.805 203.359 -142.044 204.08L-204.539 393.209C-205.684 393.015 -206.86 393.128 -207.948 393.536C-209.035 393.944 -209.996 394.632 -210.732 395.531C-211.499 396.474 -211.992 397.609 -212.159 398.813C-212.326 400.016 -212.16 401.243 -211.678 402.359L-408.421 527.209C-408.877 526.632 -409.392 526.104 -409.957 525.632C-411.51 524.356 -413.407 523.57 -415.408 523.373C-417.409 523.176 -419.423 523.577 -421.196 524.526C-422.968 525.475 -424.42 526.928 -425.366 528.703C-426.312 530.477 -426.711 532.492 -426.511 534.492C-426.311 536.493 -425.522 538.389 -424.244 539.94C-422.965 541.492 -421.255 542.629 -419.33 543.207C-417.405 543.786 -415.351 543.78 -413.429 543.19C-411.507 542.601 -409.803 541.454 -408.532 539.895C-408.532 539.895 -408.428 539.767 -408.362 539.687L-90.7109 737.403C-91.6124 739.264 -91.892 741.364 -91.5084 743.396C-91.1249 745.427 -90.0985 747.281 -88.5807 748.684C-87.063 750.088 -85.1343 750.966 -83.0793 751.189C-81.0242 751.412 -78.9517 750.969 -77.1675 749.924L34.187 901.343C34.0563 901.503 33.9256 901.663 33.7948 901.823C33.2403 902.501 32.8247 903.281 32.5717 904.119C32.3186 904.958 32.2332 905.838 32.3202 906.709C32.4072 907.58 32.665 908.426 33.0788 909.197C33.4927 909.969 34.0544 910.651 34.732 911.206C35.4096 911.76 36.1898 912.175 37.028 912.428C37.8662 912.681 38.7461 912.766 39.6173 912.679C40.4886 912.592 41.3342 912.334 42.1058 911.92C42.8774 911.506 43.56 910.944 44.1145 910.266L279.406 1043.29C278.348 1045.64 278.098 1048.27 278.693 1050.77C279.288 1053.27 280.696 1055.51 282.696 1057.13C284.696 1058.74 287.175 1059.65 289.748 1059.71C292.32 1059.77 294.839 1058.98 296.913 1057.45L489.122 1274.36C488.299 1275.36 487.791 1276.58 487.662 1277.87C487.534 1279.16 487.79 1280.46 488.399 1281.6C489.009 1282.74 489.944 1283.68 491.085 1284.29C492.227 1284.9 493.525 1285.16 494.814 1285.03C496.102 1284.91 497.325 1284.4 498.326 1283.58C499.327 1282.75 500.061 1281.65 500.436 1280.41C500.812 1279.17 500.811 1277.85 500.433 1276.61C500.056 1275.37 499.32 1274.27 498.318 1273.45L498.331 1273.44ZM495.65 1272.15C494.334 1271.84 492.954 1271.95 491.707 1272.47L337.039 1020.21C337.74 1019.69 338.374 1019.09 338.929 1018.42C340.194 1016.87 341.003 1015.01 341.265 1013.02L590.074 1023.79C590.165 1024.79 590.454 1025.76 590.925 1026.64C591.397 1027.53 592.041 1028.31 592.819 1028.94C593.135 1029.2 593.477 1029.43 593.84 1029.62L495.65 1272.15ZM297.394 1039.07C295.884 1037.84 294.09 1037.01 292.177 1036.65C290.263 1036.29 288.29 1036.41 286.436 1037.01L184.242 795.778L323.537 1003.11C323 1003.55 322.508 1004.04 322.07 1004.57C320.535 1006.46 319.672 1008.8 319.617 1011.23C319.562 1013.66 320.318 1016.03 321.766 1017.98L297.937 1039.51L297.394 1039.07ZM43.1425 900.828C42.5847 900.397 41.9615 900.059 41.2966 899.825L78.7019 715.937C80.3165 716.097 81.9467 715.894 83.4729 715.343C84.9992 714.792 86.3828 713.906 87.5226 712.751L170.384 780.545C169.216 782.28 168.604 784.329 168.627 786.42C168.65 788.51 169.307 790.545 170.511 792.254L43.2151 900.968L43.1425 900.828ZM-252.937 578.212C-251.776 576.727 -251.014 574.97 -250.722 573.108C-250.431 571.245 -250.62 569.34 -251.271 567.571L-118.364 503.727C-117.959 504.377 -117.456 504.961 -116.871 505.455C-115.524 506.544 -113.844 507.137 -112.112 507.135L-84.2342 732.192C-85.7296 732.524 -87.121 733.217 -88.2865 734.212L-252.937 578.212ZM-127.628 201.258L25.2426 331.988C23.5532 334.408 22.8725 337.391 23.3449 340.304L-77.0075 365.565C-77.9053 362.987 -79.6956 360.815 -82.0549 359.443C-84.4142 358.07 -87.1869 357.587 -89.8719 358.08L-132.443 204.307C-130.629 203.665 -128.984 202.623 -127.628 201.258ZM-6.44762 108.559L69.3788 143.23C68.6232 145.477 68.7907 147.931 69.8445 150.054C70.8983 152.177 72.7521 153.794 74.9982 154.55L35.9661 327.29C35.0263 327.165 34.0744 327.156 33.1325 327.266L-12.5133 113.333C-10.5322 112.711 -8.7748 111.526 -7.45574 109.922C-7.10308 109.475 -6.79234 108.997 -6.52749 108.494L-6.44762 108.559ZM80.955 137.523L141.859 -141.84C143.316 -141.699 144.783 -141.994 146.073 -142.687L287.482 60.2642C287.168 60.5355 286.874 60.8297 286.602 61.1445C285.807 62.1254 285.247 63.2756 284.965 64.5067C284.684 65.7377 284.689 67.0169 284.979 68.2457C285.123 68.9253 285.356 69.5827 285.673 70.2007C286.187 71.198 286.899 72.0801 287.766 72.793C288.005 72.9891 288.229 73.1721 288.469 73.3681L218.764 217.919C216.073 216.863 213.116 216.687 210.318 217.418C207.521 218.149 205.027 219.748 203.195 221.986C203.038 222.178 202.895 222.354 202.738 222.545L86.1269 149.944C87.0054 148.065 87.2177 145.943 86.7289 143.928L285.653 70.2907C285.336 69.6788 285.108 69.025 284.975 68.3489L86.0378 142.002C85.5195 140.953 84.7965 140.018 83.9113 139.253C83.0262 138.487 81.9968 137.907 80.8838 137.545L80.955 137.523ZM297.07 69.6023L296.992 69.6982C296.704 70.0394 296.374 70.3435 296.011 70.6032C295.415 71.0194 294.737 71.3054 294.023 71.4426C293.309 71.5799 292.574 71.5652 291.866 71.3996C291.168 71.2387 290.515 70.9231 289.955 70.4761L289.843 70.3846C289.423 70.0307 289.064 69.6108 288.78 69.1414C288.402 68.5499 288.156 67.8843 288.057 67.1894C287.95 66.4926 287.991 65.7812 288.175 65.1008C288.36 64.4204 288.685 63.7861 289.129 63.2386C289.208 63.1428 289.286 63.0469 289.364 62.951C289.857 62.4257 290.447 62.0026 291.103 61.7061C291.971 61.3385 292.925 61.221 293.856 61.3666C294.787 61.5122 295.659 61.9152 296.374 62.5302C297.088 63.1451 297.616 63.9475 297.899 64.8468C298.181 65.7461 298.207 66.7065 297.972 67.6196C297.78 68.3194 297.446 68.972 296.99 69.537L297.07 69.6023ZM593.331 228.37C594.293 229.143 595.442 229.65 596.661 229.841L591.686 545.868C590.625 545.948 589.581 546.181 588.586 546.56L481.295 325.669C482.653 324.879 483.858 323.849 484.849 322.629C486.606 320.48 487.646 317.835 487.822 315.064C487.998 312.294 487.301 309.539 485.83 307.186L592.747 227.812C592.99 228.038 593.139 228.213 593.331 228.37ZM866.536 715.42C864.988 716.081 863.621 717.103 862.55 718.401C862.015 719.061 861.565 719.787 861.211 720.559L724.429 670.427C724.761 668.966 724.68 667.442 724.197 666.025C723.713 664.607 722.846 663.352 721.691 662.398C721.437 662.206 721.169 662.032 720.891 661.877L794.151 505.777C795.158 506.065 796.217 506.119 797.247 505.937L842.201 641.413L866.536 715.42ZM765.121 934.777L691.931 924.296C691.976 922.906 691.703 921.525 691.131 920.257C690.56 918.989 689.705 917.87 688.634 916.984C687.592 916.135 686.374 915.53 685.068 915.214L716.561 676.687L717.222 676.694L770.834 928.675C769.28 929.191 767.905 930.137 766.867 931.404C766.08 932.371 765.507 933.493 765.187 934.697L765.121 934.777ZM88.8299 711.153C89.7375 709.81 90.3313 708.281 90.5673 706.677C90.8034 705.074 90.6755 703.439 90.1933 701.892L204.908 653.145C205.288 653.797 205.778 654.378 206.356 654.863C206.906 655.299 207.52 655.648 208.176 655.898L180.394 775.905C178.812 775.708 177.207 775.876 175.7 776.396C174.193 776.915 172.825 777.773 171.701 778.902L88.8299 711.153ZM-75.905 734.072C-77.6787 732.648 -79.9002 731.898 -82.1747 731.957L-110.036 506.913C-109.626 506.806 -109.228 506.658 -108.848 506.471L-6.5549 668.509C-6.8918 668.777 -7.2008 669.078 -7.47724 669.408C-8.42289 670.576 -8.97944 672.011 -9.06894 673.512C-9.15844 675.012 -8.77644 676.503 -7.97639 677.775L-75.3923 734.652C-75.5608 734.434 -75.6973 734.242 -75.905 734.072ZM78 144.949L77.5889 145.093L77.949 146.054L76.9585 145.831L77.2302 144.586L78 144.949ZM84.9619 151.792C84.9619 151.792 84.9619 151.792 85.0404 151.696L201.651 224.297C200.646 226.22 200.112 228.355 200.095 230.525C200.077 232.695 200.575 234.838 201.548 236.777L43.6211 331.82C42.2256 329.889 40.2468 328.457 37.9762 327.735L77.0112 155.023C78.507 155.184 80.0195 154.97 81.4121 154.4C82.8047 153.831 84.0337 152.923 84.9881 151.76L84.9619 151.792ZM295.344 74.352L358.964 219.446C357.018 220.489 355.363 222.002 354.151 223.848C352.939 225.693 352.208 227.813 352.025 230.013L227.429 229.623C227.298 227.772 226.79 225.968 225.937 224.32C225.084 222.673 223.903 221.217 222.467 220.042C221.894 219.585 221.289 219.17 220.656 218.8L290.377 74.2626C291.984 74.8016 293.718 74.8329 295.344 74.352ZM463.37 307.029C462.085 309.032 461.364 311.344 461.281 313.722L286.128 321.049C285.865 319.067 285.043 317.2 283.757 315.668L356.707 241.207L356.835 241.311C359.471 243.464 362.837 244.515 366.23 244.244C369.623 243.972 372.78 242.4 375.041 239.855L463.37 307.029ZM709.999 664.009C709.128 665.275 708.637 666.765 708.585 668.301C708.534 669.838 708.922 671.357 709.706 672.679L592.494 764.863C592.285 764.663 592.06 764.48 591.823 764.314C590.596 763.32 589.123 762.677 587.559 762.452L593.167 568.34C595.753 568.183 598.204 567.134 600.103 565.372L709.999 664.009ZM335.082 1001.64L379.278 876.928C380.496 877.166 381.757 877.07 382.926 876.651C384.095 876.232 385.129 875.505 385.92 874.546C386.829 873.428 387.359 872.05 387.433 870.61L424.777 867.341C425.221 869.87 426.523 872.17 428.464 873.851L335.985 1002.17L335.082 1001.64ZM185.763 778.111C184.785 777.321 183.671 776.717 182.475 776.327L210.141 656.333C211.472 656.43 212.804 656.139 213.974 655.494L375.601 865.384C375.485 865.511 375.376 865.644 375.275 865.784C375.054 866.02 374.848 866.271 374.66 866.535L188.979 789.304C189.592 787.333 189.609 785.225 189.028 783.245C188.446 781.264 187.292 779.5 185.711 778.175L185.763 778.111ZM86.7691 696.689C85.4999 695.65 84.0117 694.912 82.4161 694.531C80.8206 694.149 79.1592 694.134 77.5569 694.487L37.3629 573.175C38.622 572.616 39.7332 571.772 40.6079 570.708C40.8675 570.423 41.1119 570.124 41.34 569.813L204.225 647.624C203.865 648.83 203.841 650.11 204.154 651.328L89.4528 700.059C88.7712 698.785 87.8408 697.661 86.7168 696.753L86.7691 696.689ZM-4.76544 667.332L-107.043 505.307C-106.68 505.006 -106.345 504.673 -106.042 504.312C-105.822 504.075 -105.616 503.824 -105.427 503.561L25.0248 562.146C24.4663 563.886 24.4432 565.754 24.9583 567.507C25.4734 569.26 26.503 570.818 27.9139 571.979C28.5329 572.469 29.2147 572.875 29.9413 573.184L-0.540402 666.894C-1.98372 666.617 -3.47744 666.793 -4.81775 667.396L-4.76544 667.332ZM355.296 239.705L282.33 314.154C280.699 312.84 278.716 312.036 276.63 311.843C274.545 311.65 272.448 312.076 270.603 313.069L222.315 241.284C223.096 240.67 223.808 239.974 224.44 239.208C226.202 237.055 227.264 234.415 227.484 231.642L352.093 232.016C352.276 234.873 353.382 237.594 355.243 239.769L355.296 239.705ZM585.469 565.722C587.113 567.075 589.113 567.924 591.229 568.167L585.634 762.264C585.279 762.301 584.928 762.361 584.581 762.442L519.075 570.859C521.115 569.96 522.864 568.512 524.126 566.675C525.388 564.839 526.114 562.687 526.222 560.461L581.458 558.466C581.783 561.326 583.201 563.949 585.416 565.786L585.469 565.722ZM397.561 445.938C397.014 446.661 396.613 447.483 396.38 448.359L256.194 431.399C256.241 429.806 255.919 428.223 255.253 426.776C254.587 425.328 253.594 424.055 252.353 423.055C251.485 422.365 250.514 421.813 249.476 421.421L273.745 332.925C275.247 333.19 276.788 333.127 278.264 332.741C279.739 332.356 281.114 331.656 282.294 330.69L397.561 445.938ZM504.922 552.237C503.604 553.848 502.727 555.773 502.377 557.824C502.026 559.875 502.214 561.982 502.923 563.938L406.164 608.731C405.66 607.892 405.02 607.143 404.27 606.515C403.039 605.522 401.56 604.884 399.993 604.669L404.165 457.423C405.439 457.262 406.649 456.772 407.676 456.001L504.922 552.237ZM580.403 764.68L406.012 618.076C406.731 616.984 407.196 615.746 407.374 614.451C407.552 613.157 407.438 611.839 407.04 610.594L503.72 565.898C505.026 568.175 507.046 569.96 509.467 570.976C511.888 571.993 514.576 572.186 517.117 571.524L582.57 763.172C581.772 763.555 581.04 764.064 580.403 764.68ZM215.063 644.221C214.599 643.849 214.085 643.544 213.535 643.318L239.624 550.282C241.529 550.637 243.494 550.473 245.314 549.808C247.134 549.143 248.742 548.002 249.97 546.503C250.307 546.072 250.609 545.615 250.875 545.137L390.43 610.555C390.072 611.642 389.923 612.787 389.99 613.93L217.17 647.252C216.755 646.07 216.027 645.022 215.063 644.221ZM91.1303 444.42L235.536 432.983C235.962 435.426 237.244 437.638 239.152 439.222C240.64 440.425 242.433 441.19 244.331 441.432L240.892 528.753C239.388 528.828 237.917 529.217 236.572 529.895C235.228 530.573 234.04 531.524 233.085 532.688C232.954 532.848 232.837 532.992 232.706 533.152L90.2512 448.395C90.809 447.143 91.108 445.79 91.1303 444.42ZM391.379 608.744L251.799 543.225C252.727 540.626 252.631 537.772 251.53 535.242L397.582 454.518C397.922 454.977 398.313 455.395 398.748 455.765C399.715 456.543 400.869 457.054 402.094 457.249L397.922 604.495C396.773 604.599 395.655 604.93 394.634 605.467C393.613 606.005 392.708 606.74 391.972 607.629C391.731 607.969 391.512 608.324 391.315 608.692L391.379 608.744ZM396.666 452.834L250.601 533.575C249.761 532.303 248.655 531.229 247.359 530.427C246.063 529.624 244.608 529.113 243.095 528.928L246.537 441.637C247.972 441.559 249.375 441.183 250.657 440.532C251.938 439.88 253.069 438.969 253.978 437.855C254.995 436.591 255.705 435.109 256.054 433.525L396.241 450.486C396.24 451.265 396.362 452.04 396.602 452.782L396.666 452.834ZM268.914 330.812C269.808 331.527 270.81 332.096 271.883 332.495L247.614 420.991C246.14 420.73 244.627 420.792 243.179 421.173C241.732 421.555 240.384 422.247 239.23 423.201C238.077 424.155 237.144 425.349 236.498 426.7C235.852 428.05 235.507 429.525 235.487 431.022L91.0332 442.42C90.8762 441.503 90.5898 440.613 90.1824 439.776L267.201 329.091C267.694 329.701 268.246 330.26 268.85 330.76L268.914 330.812ZM88.8886 450.615C88.9965 450.499 89.0969 450.376 89.1893 450.247L231.844 534.954C231.111 536.486 230.756 538.172 230.81 539.869L42.5012 562.787C42.056 560.841 40.9792 559.097 39.4387 557.828C38.9773 557.449 38.4774 557.121 37.9472 556.847L78.4223 453.922C80.2999 454.436 82.2861 454.398 84.1426 453.811C85.9991 453.225 87.6471 452.115 88.8886 450.615ZM42.6622 564.84L230.971 541.922C231.308 543.692 232.103 545.343 233.277 546.711C234.451 548.078 235.962 549.114 237.661 549.716L211.568 642.723C210.419 642.582 209.252 642.735 208.177 643.165C207.102 643.596 206.153 644.292 205.419 645.187C205.285 645.335 205.158 645.49 205.04 645.65L42.0751 567.774C42.4251 566.839 42.619 565.853 42.6491 564.856L42.6622 564.84ZM217.576 649.265L390.396 615.943C390.865 617.449 391.738 618.797 392.921 619.84C394.104 620.883 395.551 621.581 397.104 621.858L380.055 863.266C379.08 863.349 378.134 863.639 377.279 864.116L215.651 654.226C215.769 654.1 215.878 653.967 215.978 653.826C217.034 652.55 217.596 650.937 217.563 649.281L217.576 649.265ZM387.283 868.513C387.005 867.259 386.37 866.113 385.455 865.213C384.54 864.313 383.383 863.697 382.126 863.44L399.092 622.817L433.175 854.339C430.785 854.917 428.648 856.259 427.088 858.161C425.439 860.167 424.539 862.684 424.542 865.281L387.283 868.513ZM443.058 856.503C440.876 854.713 438.099 853.812 435.281 853.981L401.073 621.798C402.453 621.416 403.716 620.7 404.753 619.713L579.128 766.304C578.306 767.551 577.817 768.989 577.709 770.479C577.601 771.969 577.877 773.462 578.511 774.815L444.846 858.392C444.315 857.705 443.711 857.077 443.045 856.519L443.058 856.503ZM506.337 550.834L409.088 454.569C410.193 453.083 410.685 451.23 410.46 449.392C410.236 447.554 409.313 445.874 407.882 444.699L407.547 444.425L469.373 326.452C471.367 327.297 473.536 327.644 475.694 327.462L511.324 548.325C509.502 548.739 507.806 549.583 506.376 550.786L506.337 550.834ZM466.126 324.489C466.555 324.836 467.004 325.158 467.469 325.454L405.653 443.382C404.537 442.991 403.342 442.88 402.173 443.058C401.004 443.237 399.897 443.699 398.948 444.405L283.786 329.323C285.186 327.586 286 325.45 286.111 323.222L461.25 315.911C461.704 319.294 463.452 322.368 466.126 324.489ZM205.158 241.198C207.295 242.942 209.909 243.998 212.658 244.228C215.406 244.458 218.16 243.851 220.558 242.487L268.767 314.367C268.235 314.811 267.744 315.302 267.3 315.834C265.83 317.655 264.998 319.908 264.934 322.247L45.6161 336.813C45.4593 335.71 45.1296 334.639 44.639 333.64L202.645 238.501C203.359 239.507 204.204 240.414 205.158 241.198ZM45.8643 338.857L265.182 324.291C265.356 325.335 265.675 326.35 266.128 327.306L89.0353 437.984C87.7703 436.329 86.0196 435.111 84.028 434.5C82.0363 433.889 79.9035 433.917 77.9278 434.578L39.9055 348.519C41.1522 347.846 42.2571 346.939 43.1591 345.846C44.8301 343.892 45.7844 341.426 45.8643 338.857ZM74.6739 452.082C75.214 452.518 75.7975 452.897 76.4152 453.213L35.9401 556.139C34.2539 555.688 32.4736 555.73 30.8106 556.261C29.1475 556.791 27.6714 557.788 26.5574 559.132C26.2801 559.486 26.0281 559.859 25.8034 560.249L-104.567 501.598C-104.266 500.542 -104.196 499.434 -104.364 498.35L71.8394 447.789C72.3849 449.424 73.345 450.89 74.626 452.043L74.6739 452.082ZM446.025 860.211L579.581 776.571C579.954 777.047 580.376 777.481 580.84 777.868C582.13 778.916 583.691 779.575 585.342 779.769C586.993 779.962 588.665 779.681 590.162 778.959L677.289 916.931C676.796 917.326 676.344 917.769 675.94 918.255C675.3 919.061 674.801 919.969 674.462 920.94L447.057 866.87C447.391 864.597 447.031 862.276 446.025 860.211ZM679.01 915.805L591.883 777.833C592.349 777.46 592.774 777.039 593.151 776.577C594.3 775.169 594.982 773.439 595.103 771.626C595.224 769.813 594.778 768.008 593.827 766.46L711.039 674.276C711.231 674.433 711.407 674.577 711.599 674.734C712.492 675.454 713.53 675.975 714.641 676.263L683.148 914.79C681.695 914.775 680.259 915.11 678.962 915.766L679.01 915.805ZM581.316 556.456L526.096 558.464C525.716 555.413 524.177 552.626 521.798 550.68C519.419 548.733 516.382 547.776 513.316 548.008L477.652 327.09C478.24 326.96 478.816 326.779 479.373 326.551L586.665 547.441C585.106 548.379 583.801 549.684 582.864 551.244C581.928 552.803 581.389 554.568 581.294 556.385L581.316 556.456ZM27.3004 347.302C28.7846 348.517 30.5529 349.335 32.4398 349.68C34.3266 350.024 36.2702 349.884 38.0885 349.273L76.0454 435.412C74.9605 436.02 73.9965 436.823 73.2014 437.78C72.8564 438.222 72.5451 438.69 72.2702 439.179L-76.9909 373.074C-76.3861 371.305 -76.2223 369.415 -76.5139 367.569L23.7804 342.315C24.4763 344.267 25.6936 345.992 27.3004 347.302ZM-78.9521 376.644C-78.5198 376.104 -78.1308 375.53 -77.7885 374.929L71.4567 441.02C70.9496 442.609 70.8411 444.297 71.141 445.937L-105.078 496.485C-105.485 495.493 -106.108 494.604 -106.9 493.881C-107.693 493.159 -108.636 492.622 -109.661 492.308L-88.9348 380.827C-87.0559 380.999 -85.1633 380.708 -83.423 379.979C-81.6826 379.249 -80.1474 378.104 -78.9521 376.644ZM2.67357 668.377C2.24883 668.041 1.79203 667.748 1.30984 667.501L31.7131 573.887C32.9181 574.134 34.1618 574.125 35.363 573.859L75.4553 695.328C73.8869 695.997 72.5012 697.031 71.4143 698.344C70.8953 698.98 70.4526 699.674 70.0953 700.413L5.06627 675.589C5.37684 674.283 5.31747 672.917 4.89484 671.643C4.47222 670.369 3.70305 669.238 2.67357 668.377ZM188.29 791.222L373.972 868.452C373.651 869.712 373.697 871.038 374.103 872.273C374.51 873.508 375.26 874.602 376.267 875.425C376.61 875.706 376.978 875.954 377.368 876.166L333.159 1000.9C330.513 1000.23 327.712 1000.57 325.304 1001.86L185.754 794.321C186.288 793.88 186.779 793.388 187.221 792.854C187.627 792.344 187.985 791.797 188.29 791.222ZM337.655 1003.32L430.147 874.988C432.172 876.185 434.52 876.72 436.864 876.519C439.207 876.319 441.43 875.393 443.223 873.87L591.492 1018.6C590.818 1019.52 590.362 1020.58 590.159 1021.7L341.365 1010.95C341.289 1009.49 340.921 1008.07 340.284 1006.76C339.646 1005.45 338.753 1004.28 337.655 1003.32ZM601.668 1016.79C600.363 1015.93 598.824 1015.51 597.265 1015.57C595.706 1015.64 594.206 1016.19 592.975 1017.15L444.706 872.416C445.541 871.359 446.191 870.168 446.628 868.893L673.925 922.901C673.765 924.21 673.893 925.538 674.3 926.792C674.706 928.046 675.381 929.196 676.278 930.162L601.668 1016.79ZM791.75 504.507C791.926 504.65 792.086 504.781 792.262 504.925L718.988 661.04C717.662 660.613 716.247 660.54 714.884 660.828C713.521 661.116 712.256 661.756 711.217 662.684L601.375 564.012C602.298 562.765 602.955 561.341 603.306 559.83C603.657 558.319 603.695 556.752 603.417 555.226L789.706 502.247C790.207 503.146 790.906 503.919 791.75 504.507ZM464.629 305.392L376.239 238.195C377.992 235.469 378.682 232.195 378.178 228.994C377.675 225.794 376.012 222.89 373.508 220.835C373.14 220.535 372.773 220.234 372.422 219.947L418.916 135.283C419.926 135.656 421.009 135.783 422.078 135.656L469.873 301.786C467.86 302.548 466.061 303.785 464.629 305.392ZM416.899 134.326L417.059 134.457L370.624 218.982C367.547 217.598 364.057 217.444 360.869 218.551L297.2 73.5501L296.782 73.768C296.921 73.6994 297.055 73.6223 297.184 73.537C298.015 73.0576 298.753 72.4321 299.362 71.6907C299.56 71.4801 299.744 71.2558 299.911 71.0196C299.911 71.0196 300.002 70.9077 300.055 70.8438C300.107 70.7799 299.95 70.9716 299.911 71.0196L414.765 127.059C414.356 128.345 414.34 129.724 414.72 131.019C415.101 132.314 415.859 133.466 416.899 134.326ZM-95.1449 378.28C-93.918 379.284 -92.4955 380.02 -90.9681 380.444L-111.653 491.906C-113.362 491.832 -115.046 492.332 -116.44 493.324L-200.385 403.81C-199.341 402.478 -198.853 400.794 -199.02 399.111L-98.6997 373.238C-98.0011 375.214 -96.7711 376.958 -95.1449 378.28ZM-201.889 405.193L-117.945 494.707C-118.75 495.696 -119.295 496.871 -119.528 498.125C-119.762 499.378 -119.677 500.67 -119.282 501.883L-252.147 565.708C-252.777 564.605 -253.601 563.624 -254.578 562.812C-255.381 562.181 -256.267 561.662 -257.211 561.271L-206.637 406.269C-204.976 406.52 -203.281 406.135 -201.889 405.193ZM-74.052 736.175L-6.63602 679.299L-6.41237 679.482C-5.68061 680.084 -4.83716 680.536 -3.93039 680.812C-3.02361 681.087 -2.07133 681.181 -1.12808 681.088C-0.184841 680.995 0.730844 680.717 1.56643 680.269C2.40202 679.822 3.14108 679.214 3.74134 678.48C4.01398 678.148 4.25335 677.79 4.45603 677.411L69.4851 702.234C69.1157 703.615 69.0155 705.055 69.1898 706.474L-72.8162 738.413C-73.1258 737.615 -73.5415 736.862 -74.052 736.175ZM603.83 1018.91L603.252 1018.11L677.817 931.475C679.695 932.739 681.977 933.258 684.217 932.931C686.457 932.603 688.495 931.453 689.933 929.704C690.755 928.682 691.352 927.497 691.684 926.228L764.874 936.709C764.855 937.75 765.018 938.786 765.356 939.771L603.83 1018.91ZM776.347 928.651C775.229 928.287 774.048 928.156 772.876 928.265L719.295 676.149C720.675 675.674 721.9 674.831 722.836 673.711C723.185 673.28 723.492 672.817 723.754 672.328L860.506 722.463C859.999 724.446 860.071 726.532 860.712 728.474C861.353 730.417 862.537 732.135 864.124 733.426C864.572 733.775 865.044 734.091 865.539 734.37L776.347 928.651ZM1046.05 593.864C1045.68 595.504 1045.9 597.221 1046.66 598.716L879.008 718.102C878.623 717.639 878.197 717.21 877.736 716.821C876.477 715.789 874.997 715.058 873.412 714.685C871.826 714.312 870.176 714.308 868.588 714.671L853.77 670.298L799.208 505.3C800.06 504.871 800.814 504.271 801.423 503.538C801.67 503.221 801.892 502.885 802.086 502.533L1046.05 593.864ZM791.332 494.294C791.175 494.486 791.018 494.678 790.848 494.886C790.253 495.595 789.809 496.419 789.542 497.305C789.275 498.192 789.191 499.124 789.295 500.044L603.006 553.023C602.304 551.207 601.144 549.605 599.637 548.372C597.943 546.967 595.87 546.098 593.681 545.873L598.641 229.834C599.461 229.726 600.255 229.472 600.986 229.085L791.332 494.294ZM591.235 220.6C590.905 221.521 590.77 222.5 590.84 223.476C590.91 224.451 591.182 225.401 591.639 226.266L484.533 305.512C483.003 303.72 481.017 302.375 478.786 301.62C476.554 300.864 474.159 300.727 471.856 301.221L424.027 135.197C424.956 134.78 425.776 134.156 426.427 133.372C426.492 133.293 426.557 133.213 426.61 133.149L591.235 220.6ZM415.689 125.147C415.666 125.19 415.635 125.228 415.597 125.259L300.719 69.1197C301.253 67.5562 301.307 65.8684 300.872 64.2745C300.437 62.6805 299.535 61.2538 298.28 60.1787C297.026 59.1036 295.478 58.4296 293.836 58.2439C292.194 58.0582 290.535 58.3692 289.072 59.1369C288.928 59.3127 288.643 59.3999 288.451 59.5364C288.647 59.3869 288.854 59.2533 289.072 59.1369L150.002 -140.646L415.689 125.147ZM-9.22736 94.6813L139.268 -142.519C139.453 -142.42 139.647 -142.341 139.849 -142.284L78.881 137.027C77.3905 136.861 75.882 137.068 74.4913 137.629C73.1005 138.191 71.8713 139.09 70.9143 140.245C70.6491 140.583 70.4102 140.94 70.1996 141.314L-5.65875 106.617C-4.94308 104.557 -4.87572 102.327 -5.46571 100.227C-6.05569 98.128 -7.27471 96.2598 -8.95868 94.8744L-9.21428 94.6653L-9.22736 94.6813ZM-23.676 110.255C-22.5615 111.554 -21.1415 112.555 -19.5439 113.168C-17.9462 113.781 -16.2209 113.988 -14.5235 113.769L31.1224 327.702C29.4102 328.223 27.8513 329.154 26.5819 330.416L-126.304 199.673C-124.761 197.565 -123.883 195.044 -123.78 192.433C-123.678 189.823 -124.356 187.241 -125.729 185.019L-23.676 110.255ZM-140.072 204.734C-138.222 205.184 -136.296 205.231 -134.425 204.872L-91.9024 358.606C-93.8028 359.307 -95.4813 360.503 -96.7639 362.071C-97.7965 363.336 -98.5486 364.806 -98.9702 366.383C-99.3918 367.96 -99.4733 369.609 -99.2093 371.22L-199.53 397.093C-199.953 396.127 -200.596 395.272 -201.407 394.597C-201.765 394.3 -202.155 394.043 -202.569 393.833L-140.072 204.734ZM-210.566 404.096C-210.338 404.376 -210.086 404.635 -209.814 404.871C-209.447 405.169 -209.047 405.425 -208.623 405.632L-259.196 560.634C-261.2 560.163 -263.296 560.261 -265.247 560.918C-267.198 561.575 -268.926 562.764 -270.238 564.351C-271.06 565.366 -271.69 566.523 -272.097 567.764L-406.378 534.882C-406.1 532.859 -406.428 530.799 -407.321 528.962L-210.566 404.096ZM-407.292 537.922C-407.13 537.585 -406.988 537.237 -406.868 536.882L-272.539 569.803C-272.884 572.043 -272.529 574.335 -271.525 576.366C-270.52 578.397 -268.914 580.069 -266.925 581.155C-264.936 582.24 -262.66 582.685 -260.408 582.431C-258.156 582.176 -256.038 581.234 -254.34 579.732L-90.2111 735.358L-407.292 537.922ZM-75.5319 748.675C-75.1806 748.372 -74.8506 748.045 -74.5442 747.696C-73.7247 746.693 -73.1156 745.535 -72.7534 744.291C-72.3912 743.048 -72.2832 741.744 -72.4359 740.458L69.5571 708.535C70.1954 710.498 71.382 712.237 72.9768 713.547C74.0717 714.447 75.3359 715.118 76.6947 715.522L39.2096 899.344C38.0564 899.311 36.9147 899.582 35.8995 900.13L-75.5319 748.675ZM45.1226 908.317C45.4729 907.368 45.6028 906.351 45.5022 905.345C45.4017 904.338 45.0734 903.368 44.5423 902.507L171.839 793.793C172.046 793.963 172.254 794.133 172.478 794.316C173.818 795.411 175.409 796.157 177.109 796.486C178.808 796.815 180.563 796.717 182.216 796.201L284.558 1037.74C283.208 1038.48 282.011 1039.46 281.034 1040.65C280.825 1040.9 280.629 1041.14 280.433 1041.38L45.1226 908.317ZM298.46 1056.05C298.63 1055.84 298.8 1055.64 298.983 1055.41C300.632 1053.4 301.556 1050.89 301.607 1048.28C301.658 1045.68 300.833 1043.13 299.265 1041.05L323.106 1019.51L323.586 1019.9C325.202 1021.22 327.164 1022.04 329.237 1022.28C331.31 1022.51 333.406 1022.15 335.277 1021.22L487.251 1268.99L298.46 1056.05Z" fill="white" fill-opacity="0.1"/>
</g>
</g>
<defs>
<clipPath id="clip0_515_503">
<rect width="1198.44" height="900.565" fill="white" transform="translate(137.269 -164) rotate(39.2892)"/>
</clipPath>
</defs>
</svg>
